<?xml version="1.0" encoding="UTF-8"?>
<svg xmlns="http://www.w3.org/2000/svg" xmlns:xlink="http://www.w3.org/1999/xlink" width="540px" height="100px" viewBox="0 0 538 100" version="1.1">
<defs>
<filter id="alpha" filterUnits="objectBoundingBox" x="0%" y="0%" width="100%" height="100%">
  <feColorMatrix type="matrix" in="SourceGraphic" values="0 0 0 0 1 0 0 0 0 1 0 0 0 0 1 0 0 0 1 0"/>
</filter>
<mask id="mask0">
  <g filter="url(#alpha)">
<rect x="0" y="0" width="538" height="100" style="fill:rgb(0%,0%,0%);fill-opacity:0.301961;stroke:none;"/>
  </g>
</mask>
<linearGradient id="linear0" gradientUnits="userSpaceOnUse" x1="11.67" y1="73.360001" x2="70.610001" y2="44.720001" gradientTransform="matrix(1.408377,0,0,-1.408451,0,103.380284)">
<stop offset="0.1" style="stop-color:rgb(46.27451%,70.196078%,88.235294%);stop-opacity:1;"/>
<stop offset="0.3" style="stop-color:rgb(86.27451%,94.901961%,99.215686%);stop-opacity:1;"/>
<stop offset="1" style="stop-color:rgb(46.27451%,70.196078%,88.235294%);stop-opacity:1;"/>
</linearGradient>
<clipPath id="clip1">
  <rect x="0" y="0" width="538" height="100"/>
</clipPath>
<g id="surface5" clip-path="url(#clip1)">
<path style=" stroke:none;fill-rule:nonzero;fill:url(#linear0);" d="M 106.769531 21.621094 C 106.769531 21.621094 71.628906 -4.914062 44.363281 1.28125 L 41.96875 1.945312 C 38.242188 3.019531 34.980469 5.308594 32.703125 8.449219 C 32.335938 8.984375 32 9.539062 31.703125 10.113281 L 21.632812 27.226562 L 39.027344 30.621094 C 46.226562 35.695312 55.242188 37.46875 63.828125 35.492188 L 94.8125 41.550781 Z M 106.769531 21.621094 "/>
</g>
<mask id="mask1">
  <g filter="url(#alpha)">
<rect x="0" y="0" width="538" height="100" style="fill:rgb(0%,0%,0%);fill-opacity:0.301961;stroke:none;"/>
  </g>
</mask>
<linearGradient id="linear1" gradientUnits="userSpaceOnUse" x1="44" y1="59.330002" x2="33.68" y2="24.959999" gradientTransform="matrix(1.408377,0,0,-1.408451,0,103.380284)">
<stop offset="0" style="stop-color:rgb(46.27451%,70.196078%,88.235294%);stop-opacity:1;"/>
<stop offset="0.5" style="stop-color:rgb(26.27451%,46.666667%,73.333333%);stop-opacity:1;"/>
<stop offset="1" style="stop-color:rgb(12.156863%,23.137255%,46.666667%);stop-opacity:1;"/>
</linearGradient>
<clipPath id="clip2">
  <rect x="0" y="0" width="538" height="100"/>
</clipPath>
<g id="surface8" clip-path="url(#clip2)">
<path style=" stroke:none;fill-rule:nonzero;fill:url(#linear1);" d="M 32.394531 21.28125 L 29.984375 21.957031 C 18.859375 25.550781 15.054688 35.957031 21.449219 45.085938 C 29 54.582031 41.5625 58.539062 53.195312 55.085938 L 94.769531 41.550781 C 94.769531 41.550781 59.699219 15.085938 32.394531 21.28125 Z M 32.394531 21.28125 "/>
</g>
<linearGradient id="linear2" gradientUnits="userSpaceOnUse" x1="7.34" y1="44.34" x2="66.940002" y2="3.82" gradientTransform="matrix(1.408377,0,0,-1.408451,0,103.380284)">
<stop offset="0" style="stop-color:rgb(19.215686%,35.294118%,66.27451%);stop-opacity:1;"/>
<stop offset="0.5" style="stop-color:rgb(31.764706%,54.117647%,78.431373%);stop-opacity:1;"/>
<stop offset="1" style="stop-color:rgb(19.215686%,35.294118%,66.27451%);stop-opacity:1;"/>
</linearGradient>
<linearGradient id="linear3" gradientUnits="userSpaceOnUse" x1="34.25" y1="39.490002" x2="10.2" y2="-48.700001" gradientTransform="matrix(1.408377,0,0,-1.408451,0,103.380284)">
<stop offset="0" style="stop-color:rgb(26.27451%,46.666667%,73.333333%);stop-opacity:1;"/>
<stop offset="0.5" style="stop-color:rgb(10.196078%,20%,41.960784%);stop-opacity:1;"/>
<stop offset="1" style="stop-color:rgb(10.196078%,20%,41.960784%);stop-opacity:1;"/>
</linearGradient>
</defs>
<g id="surface1">
<path style=" stroke:none;fill-rule:nonzero;fill:rgb(46.27451%,70.19608%,88.235295%);fill-opacity:1;" d="M 106.769531 21.621094 C 106.769531 21.621094 71.628906 -4.914062 44.363281 1.28125 L 41.96875 1.945312 C 38.242188 3.019531 34.980469 5.308594 32.703125 8.449219 C 32.335938 8.984375 32 9.539062 31.703125 10.113281 L 21.632812 27.226562 L 39.027344 30.621094 C 46.226562 35.695312 55.242188 37.46875 63.828125 35.492188 L 94.8125 41.550781 Z M 106.769531 21.621094 "/>
<use xlink:href="#surface5" mask="url(#mask0)"/>
<path style=" stroke:none;fill-rule:nonzero;fill:rgb(31.764707%,54.11765%,78.431374%);fill-opacity:1;" d="M 32.394531 21.28125 L 29.984375 21.957031 C 18.859375 25.550781 15.054688 35.957031 21.449219 45.085938 C 29 54.582031 41.5625 58.539062 53.195312 55.085938 L 94.769531 41.550781 C 94.769531 41.550781 59.699219 15.085938 32.394531 21.28125 Z M 32.394531 21.28125 "/>
<use xlink:href="#surface8" mask="url(#mask1)"/>
<path style=" stroke:none;fill-rule:nonzero;fill:url(#linear2);" d="M 87.164062 51.296875 C 79.621094 41.746094 67.027344 37.757812 55.363281 41.226562 L 13.832031 54.691406 L 0.761719 77.957031 L 75.164062 90.632812 L 88.503906 66.902344 C 91.164062 62.351562 90.898438 56.621094 87.164062 51.296875 Z M 87.164062 51.296875 "/>
<path style=" stroke:none;fill-rule:nonzero;fill:url(#linear3);" d="M 74.09375 74.5625 C 66.558594 65.054688 54.003906 61.070312 42.363281 64.492188 L 0.761719 77.957031 C 0.761719 77.957031 35.96875 104.492188 63.164062 98.296875 L 65.558594 97.632812 C 76.699219 94.097656 80.503906 83.691406 74.09375 74.5625 Z M 74.09375 74.5625 "/>
<path style=" stroke:none;fill-rule:nonzero;fill:rgb(34.509805%,34.901962%,35.686275%);fill-opacity:1;" d="M 154.511719 63.378906 C 157.574219 66.359375 161.648438 68.070312 165.921875 68.167969 C 170.710938 68.167969 174.652344 65.351562 174.652344 60.5625 C 174.652344 49.578125 152.824219 52.253906 152.824219 38.730469 C 152.824219 32.394531 158.457031 27.042969 166.484375 27.042969 C 170.777344 26.914062 174.957031 28.425781 178.171875 31.269531 L 176.046875 34.929688 C 173.421875 32.542969 170.019531 31.191406 166.46875 31.125 C 160.835938 31.125 157.316406 34.789062 157.175781 38.589844 C 157.175781 49.015625 179.003906 46.054688 179.003906 60.421875 C 179.003906 66.902344 173.933594 72.253906 165.765625 72.253906 C 160.585938 72.355469 155.59375 70.316406 151.964844 66.621094 Z M 223.664062 27.324219 C 229.597656 27.296875 235.296875 29.652344 239.480469 33.863281 C 243.660156 38.070312 245.980469 43.785156 245.917969 49.71875 C 246.074219 62.164062 236.109375 72.378906 223.664062 72.535156 L 223.523438 72.535156 C 211.078125 72.378906 201.113281 62.164062 201.269531 49.71875 L 201.269531 49.578125 C 201.246094 43.644531 203.601562 37.945312 207.808594 33.761719 C 212.019531 29.578125 217.730469 27.257812 223.664062 27.324219 Z M 223.523438 68.589844 C 233.628906 68.359375 241.636719 59.980469 241.410156 49.875 L 241.410156 49.71875 C 241.410156 39.296875 233.523438 31.269531 223.664062 31.269531 C 218.847656 31.273438 214.238281 33.21875 210.875 36.664062 C 207.507812 40.109375 205.671875 44.761719 205.777344 49.578125 C 205.777344 60.28125 213.664062 68.449219 223.523438 68.589844 Z M 271.265625 28.167969 L 275.492188 28.167969 L 275.351562 68.027344 L 295.632812 68.027344 L 295.632812 71.832031 L 270.984375 71.832031 Z M 319.011719 28.308594 L 323.238281 28.308594 L 323.097656 72.113281 L 318.871094 72.113281 Z M 351.6875 28.308594 L 365.769531 28.308594 C 378.867188 28.308594 387.742188 36.339844 387.742188 50.28125 C 387.742188 64.226562 378.867188 72.113281 365.769531 72.113281 L 351.6875 72.113281 Z M 365.207031 68.308594 C 375.910156 68.308594 383.09375 61.972656 383.234375 50.28125 C 383.375 38.589844 376.050781 32.253906 365.347656 32.253906 L 355.910156 32.253906 L 355.769531 68.308594 Z M 365.207031 68.308594 "/>
<path style=" stroke:none;fill-rule:nonzero;fill:rgb(34.509805%,34.901962%,35.686275%);fill-opacity:1;" d="M 424.597656 72.113281 C 428.242188 72.226562 431.792969 70.957031 434.539062 68.5625 C 437.304688 65.996094 438.78125 62.328125 438.570312 58.5625 L 438.570312 28.832031 L 429.765625 28.832031 L 429.765625 57.914062 C 429.863281 59.453125 429.359375 60.96875 428.359375 62.140625 C 427.332031 63.179688 425.914062 63.726562 424.457031 63.648438 C 421.695312 63.648438 419.683594 62.027344 418.414062 58.789062 L 410.964844 62.945312 C 413.394531 69.054688 417.941406 72.113281 424.597656 72.113281 Z M 424.597656 72.113281 "/>
<path style=" stroke:none;fill-rule:nonzero;fill:rgb(34.509805%,34.901962%,35.686275%);fill-opacity:1;" d="M 477.355469 72.210938 C 482.242188 72.210938 486.074219 71 488.820312 68.5625 C 491.558594 66.15625 493.070312 62.644531 492.933594 59 C 493.046875 55.9375 491.746094 52.996094 489.410156 51.015625 C 487.042969 48.984375 483.257812 47.238281 478.046875 45.746094 C 476.164062 45.324219 474.371094 44.574219 472.75 43.535156 C 471.761719 42.847656 471.179688 41.710938 471.199219 40.507812 C 471.167969 39.261719 471.746094 38.078125 472.75 37.339844 C 473.941406 36.488281 475.386719 36.066406 476.847656 36.140625 C 480.394531 35.902344 483.675781 38.039062 484.890625 41.378906 L 492.171875 37.394531 C 491.042969 34.5625 489.035156 32.171875 486.4375 30.578125 C 483.664062 28.921875 480.472656 28.089844 477.242188 28.167969 C 473.414062 28.066406 469.683594 29.367188 466.75 31.832031 C 463.929688 34.050781 462.320312 37.46875 462.398438 41.054688 C 462.324219 44.03125 463.511719 46.902344 465.664062 48.957031 C 467.617188 50.929688 471.078125 52.660156 476.046875 54.15625 C 478.28125 54.691406 480.429688 55.554688 482.410156 56.71875 C 483.472656 57.3125 484.117188 58.445312 484.085938 59.660156 C 484.082031 60.988281 483.394531 62.214844 482.269531 62.914062 C 480.890625 63.8125 479.265625 64.261719 477.621094 64.195312 C 473.597656 64.296875 469.917969 61.9375 468.328125 58.238281 L 460.722656 62.167969 C 461.972656 65.246094 464.195312 67.832031 467.046875 69.535156 C 470.164062 71.375 473.734375 72.300781 477.355469 72.210938 Z M 477.355469 72.210938 "/>
</g>
</svg>
